<svg width="72" height="113" viewBox="0 0 72 113" fill="none" xmlns="http://www.w3.org/2000/svg">
<path d="M13.6503 47.0001L26.1504 59.2682C26.1504 59.2682 25.7485 15 25.7485 11.5C25.7485 8 28.6504 6 31.6504 6C34.6504 6 37.6504 8.5 37.6504 11.5V5C37.6504 2 39.4164 0 43.0164 0C46.6164 0 49.1504 1 49.1504 5V12.5C49.1504 11 50.8824 7.5 54.3824 7.5C57.8824 7.5 60.1504 10 60.1504 12.5V29C60.3171 27.3333 62.1504 24 66.1504 24C70.1504 24 71.6504 27.3333 71.6504 29V77.5C71.6504 80 67.6504 91.5 67.6504 93.5C67.6504 95.5 69.1504 105.5 67.6504 107C66.1504 108.5 55.0164 112.5 47.5164 112.5C40.0164 112.5 27.1503 109 27.1503 107V96C27.1503 92.5 23.6504 91 21.1504 87C19.1504 83.8 16.3171 73.6667 15.1504 69L2.65033 56C0.650328 53.5 -2.14967 47.7001 2.65033 44.5001C7.45033 41.3001 11.9837 44.8334 13.6503 47.0001Z" fill="#2A2A2F"/>
<circle cx="6.65039" cy="49.5" r="3.5" fill="#1FE8C0"/>
<circle cx="31.6504" cy="12" r="3.5" fill="#1FE8C0"/>
<circle cx="43.6504" cy="6" r="3.5" fill="#1FE8C0"/>
<circle cx="54.6504" cy="13.5" r="3.5" fill="#1FE8C0"/>
<circle cx="66.1504" cy="30" r="3.5" fill="#1FE8C0"/>
<path d="M22.4237 67.6869C22.8031 68.0883 23.436 68.1061 23.8373 67.7267C24.2387 67.3473 24.2565 66.7144 23.8771 66.3131L23.1504 67L22.4237 67.6869ZM7.35742 50.293L6.63072 50.9799L22.4237 67.6869L23.1504 67L23.8771 66.3131L8.08413 49.606L7.35742 50.293Z" fill="#1FE8C0"/>
<path d="M30.6504 58C30.6504 58.5523 31.0981 59 31.6504 59C32.2027 59 32.6504 58.5523 32.6504 58H31.6504H30.6504ZM31.6504 13H30.6504L30.6504 58H31.6504H32.6504L32.6504 13H31.6504Z" fill="#1FE8C0"/>
<path d="M42.6504 51C42.6504 51.5523 43.0981 52 43.6504 52C44.2027 52 44.6504 51.5523 44.6504 51L43.6504 51L42.6504 51ZM43.6504 7L42.6504 7L42.6504 51L43.6504 51L44.6504 51L44.6504 7L43.6504 7Z" fill="#1FE8C0"/>
<path d="M53.6504 51C53.6504 51.5523 54.0981 52 54.6504 52C55.2027 52 55.6504 51.5523 55.6504 51L54.6504 51L53.6504 51ZM54.6504 16L53.6504 16L53.6504 51L54.6504 51L55.6504 51L55.6504 16L54.6504 16Z" fill="#1FE8C0"/>
<path d="M65.1504 56C65.1504 56.5523 65.5981 57 66.1504 57C66.7027 57 67.1504 56.5523 67.1504 56H66.1504H65.1504ZM66.1504 29H65.1504V56H66.1504H67.1504V29H66.1504Z" fill="#1FE8C0"/>
<path d="M31.6504 58.5L23.1504 67.5L30.6504 83L48.6504 97.5L66.6504 76.5V57L54.6504 51H43.1504L31.6504 58.5Z" stroke="#1FE8C0" stroke-width="2" stroke-linejoin="round"/>
</svg>
